<?xml version="1.0" ?><svg
  data-name="Layer 27"
  id="Layer_27"
  viewBox="0 0 32 32"
  xmlns="http://www.w3.org/2000/svg"
>
  <title />
  <path
    d="M15,8.5A2.5,2.5,0,0,1,12.5,11H7a4,4,0,1,1,3.97-4.47A2.467,2.467,0,0,1,12.5,6,2.5,2.5,0,0,1,15,8.5Z"
    style="fill: #a9e5ff"
  />
  <path
    d="M30,24.5A4.494,4.494,0,0,1,25.5,29H20a3,3,0,0,1,0-6,3.069,3.069,0,0,1,1.18.24A4.5,4.5,0,0,1,30,24.5Z"
    style="fill: #a9e5ff"
  />
  <path
    d="M7,12h5.5a3.5,3.5,0,1,0-.87-6.891A5,5,0,1,0,7,12ZM7,4A2.992,2.992,0,0,1,9.977,6.645a1,1,0,0,0,1.61.672A1.469,1.469,0,0,1,12.5,7a1.5,1.5,0,0,1,0,3H7A3,3,0,0,1,7,4Z"
    style="fill: #158fcc"
  />
  <path
    d="M18,12h9a3,3,0,1,0-2.593-4.509A1,1,0,0,0,26.136,8.5,1,1,0,1,1,27,10H18A1,1,0,0,0,18,12Z"
    style="fill: #158fcc"
  />
  <path
    d="M21.5,16H25a1,1,0,0,0,0-2H21.5a2.5,2.5,0,0,0,0,5,1,1,0,0,0,0-2A0.5,0.5,0,0,1,21.5,16Z"
    style="fill: #158fcc"
  />
  <path d="M28,14a1,1,0,0,0,0,2h1a1,1,0,0,0,0-2H28Z" style="fill: #158fcc" />
  <path d="M3,16H5a1,1,0,0,0,0-2H3A1,1,0,0,0,3,16Z" style="fill: #158fcc" />
  <path d="M8,14a1,1,0,0,0,0,2h8a1,1,0,0,0,0-2H8Z" style="fill: #158fcc" />
  <path
    d="M12,18H6a4,4,0,1,0,4,4,1,1,0,0,0-2,0,2,2,0,1,1-2-2h6A1,1,0,0,0,12,18Z"
    style="fill: #158fcc"
  />
  <path
    d="M18,19a1,1,0,0,0-1-1H15a1,1,0,0,0,0,2h2A1,1,0,0,0,18,19Z"
    style="fill: #158fcc"
  />
  <path
    d="M25.5,19a5.527,5.527,0,0,0-4.921,3.042A3.954,3.954,0,0,0,20,22a4,4,0,0,0,0,8h5.5A5.5,5.5,0,0,0,25.5,19Zm0,9H20a2,2,0,0,1,0-4,2.045,2.045,0,0,1,.794.163,1,1,0,0,0,1.347-.646A3.5,3.5,0,1,1,25.5,28Z"
    style="fill: #158fcc"
  />
</svg>
